<svg xmlns="http://www.w3.org/2000/svg" version="1.1" xmlns:xlink="http://www.w3.org/1999/xlink" xmlns:svgjs="http://svgjs.dev/svgjs" width="1500" height="1781" viewBox="0 0 1500 1781"><g transform="matrix(1,0,0,1,0.587295124090133,11.291831392503923)"><svg viewBox="0 0 208 247" data-background-color="#ffffff" preserveAspectRatio="xMidYMid meet" height="1781" width="1500" xmlns="http://www.w3.org/2000/svg" xmlns:xlink="http://www.w3.org/1999/xlink"><g id="tight-bounds" transform="matrix(1,0,0,1,-0.08143825720716791,-0.06948103143153617)"><svg viewBox="0 0 208.16287651441434 247.2" height="247.2" width="208.16287651441434"><g><svg viewBox="0 0 208.16287651441434 247.2" height="247.2" width="208.16287651441434"><g><svg viewBox="0 0 395.52 469.69251019756007" height="247.2" width="208.16287651441434"><g transform="matrix(1,0,0,1,0,265.8399943036976)"><svg viewBox="0 0 395.52 203.85251589386246" height="203.85251589386246" width="395.52"><g id="textblocktransform"><svg viewBox="0 0 395.52 203.85251589386246" height="203.85251589386246" width="395.52" id="textblock"><g><svg viewBox="0 0 395.52 145.44147088866188" height="145.44147088866188" width="395.52"><g transform="matrix(1,0,0,1,0,0)"><svg width="395.52" viewBox="4.25 -35.75 97.9 36" height="145.44147088866188" data-palette-color="#093d65"><path d="M28.3-35.5L32.8-35.5 32.8 0 28.3 0 28.3-16.15 8.75-16.15 8.75 0 4.25 0 4.25-35.5 8.75-35.5 8.75-20.15 28.3-20.15 28.3-35.5ZM55.7 0.25L55.7 0.25Q51.95 0.25 48.9-1.25 45.85-2.75 43.62-5.33 41.4-7.9 40.2-11.13 39-14.35 39-17.75L39-17.75Q39-21.3 40.27-24.53 41.55-27.75 43.82-30.28 46.1-32.8 49.15-34.27 52.2-35.75 55.8-35.75L55.8-35.75Q59.55-35.75 62.6-34.2 65.65-32.65 67.85-30.05 70.05-27.45 71.25-24.25 72.45-21.05 72.45-17.7L72.45-17.7Q72.45-14.15 71.2-10.93 69.95-7.7 67.67-5.18 65.4-2.65 62.35-1.2 59.3 0.25 55.7 0.25ZM43.55-17.75L43.55-17.75Q43.55-15.05 44.42-12.53 45.3-10 46.9-8.05 48.5-6.1 50.75-4.95 53-3.8 55.75-3.8L55.75-3.8Q58.6-3.8 60.85-5 63.1-6.2 64.67-8.2 66.25-10.2 67.07-12.7 67.9-15.2 67.9-17.75L67.9-17.75Q67.9-20.45 67.02-22.95 66.15-25.45 64.52-27.43 62.9-29.4 60.67-30.53 58.45-31.65 55.75-31.65L55.75-31.65Q52.9-31.65 50.65-30.48 48.4-29.3 46.82-27.3 45.25-25.3 44.4-22.83 43.55-20.35 43.55-17.75ZM83.2 0L78.7 0 78.7-35.5 102.15-35.5 102.15-31.5 83.2-31.5 83.2-19.65 99.15-19.65 99.15-15.9 83.2-15.9 83.2 0Z" opacity="1" transform="matrix(1,0,0,1,0,0)" fill="#093d65" class="wordmark-text-0" data-fill-palette-color="primary" id="text-0"></path></svg></g></svg></g><g transform="matrix(1,0,0,1,0,179.77671157017363)"><svg viewBox="0 0 395.52 24.07580432368885" height="24.07580432368885" width="395.52"><g transform="matrix(1,0,0,1,0,0)"><svg width="395.52" viewBox="0.4 -36.75 765.4300000000001 46.6" height="24.07580432368885" data-palette-color="#f98e54"><path d="M7.2 0L7.2 0 7.2-34.4Q7.2-34.4 7.3-34.48 7.4-34.55 8-34.55L8-34.55 10.4-34.55Q11.05-34.55 11.15-34.48 11.25-34.4 11.25-34.4L11.25-34.4 11.25-0.8Q11.25-0.4 11.08-0.25 10.9-0.1 10.05-0.05 9.2 0 7.2 0ZM17.4-31.2L0.4-31.2 0.4-34.2Q0.4-35 1.25-35L1.25-35 18.25-35 18.25-32Q18.25-31.55 18.05-31.38 17.85-31.2 17.4-31.2L17.4-31.2ZM19.6 0L19.6 0 19.6-23.25Q21.05-24.3 22.8-24.9 24.55-25.5 26.4-25.5L26.4-25.5Q28.35-25.5 29.12-24.98 29.9-24.45 29.9-23.4L29.9-23.4Q29.9-23 29.8-22.33 29.7-21.65 29.45-21L29.45-21Q28.9-21.3 28.3-21.45 27.7-21.6 27.05-21.6L27.05-21.6Q26.2-21.6 25.32-21.33 24.45-21.05 23.75-20.5L23.75-20.5 23.7-0.8Q23.7-0.4 23.52-0.25 23.35-0.1 22.5-0.05 21.65 0 19.6 0ZM39.09 0.5L39.09 0.5Q37.7 0.5 36.42 0.28 35.15 0.05 34.15-0.73 33.15-1.5 32.55-3 31.95-4.5 31.95-7.1L31.95-7.1Q31.95-9.7 32.5-11.33 33.05-12.95 34-13.83 34.95-14.7 36.15-15 37.34-15.3 38.59-15.3L38.59-15.3Q39.4-15.3 40.47-15.15 41.55-15 42.3-14.65L42.3-14.65Q42.3-14.65 42.3-15.35 42.3-16.05 42.3-16.98 42.3-17.9 42.3-18.6L42.3-18.6Q42.3-19.8 41.92-20.43 41.55-21.05 40.87-21.33 40.2-21.6 39.2-21.6L39.2-21.6Q37.25-21.6 35.45-21.25 33.65-20.9 32.55-20.45L32.55-20.45Q32.2-21.05 32.09-21.68 32-22.3 32-22.8L32-22.8Q32-23.15 32.12-23.55 32.25-23.95 32.55-24.15L32.55-24.15Q33.2-24.55 35.25-25.03 37.3-25.5 40.15-25.5L40.15-25.5Q43.4-25.5 44.87-24.15 46.34-22.8 46.34-19.4L46.34-19.4 46.34-16.75Q46.34-13.9 46.32-11.03 46.3-8.15 46.25-5.63 46.2-3.1 46.05-1.2L46.05-1.2Q45.05-0.6 43.3-0.05 41.55 0.5 39.09 0.5ZM39.5-2.9L39.5-2.9Q40.3-2.9 41.05-3.15 41.8-3.4 42.09-3.75L42.09-3.75Q42.2-4.55 42.22-5.95 42.25-7.35 42.27-8.9 42.3-10.45 42.3-11.8L42.3-11.8Q41.8-12.05 41.12-12.15 40.45-12.25 39.95-12.25L39.95-12.25Q39.15-12.25 38.47-12.08 37.8-11.9 37.3-11.38 36.8-10.85 36.5-9.85 36.2-8.85 36.2-7.2L36.2-7.2Q36.2-5.85 36.42-5 36.65-4.15 37.09-3.68 37.55-3.2 38.15-3.05 38.75-2.9 39.5-2.9ZM50.49 0L50.49 0 50.49-23.15Q50.49-24.1 50.84-24.48 51.19-24.85 52.09-24.93 52.99-25 54.64-25L54.64-25 54.64-0.8Q54.64-0.4 54.47-0.25 54.29-0.1 53.44-0.05 52.59 0 50.49 0ZM52.44-28.45L52.44-28.45Q51.49-28.5 50.94-29.18 50.39-29.85 50.39-31.6L50.39-31.6Q50.44-32.95 50.99-33.77 51.54-34.6 52.74-34.6L52.74-34.6Q53.89-34.6 54.34-33.95 54.79-33.3 54.74-31.7L54.74-31.7Q54.74-30.2 54.17-29.33 53.59-28.45 52.44-28.45ZM59.84 0L59.84 0 59.84-23.8Q60.84-24.25 62.19-24.63 63.54-25 64.99-25.25 66.44-25.5 67.79-25.5L67.79-25.5Q70.39-25.5 71.94-24.83 73.49-24.15 74.14-22.7 74.79-21.25 74.79-18.8L74.79-18.8 74.79-0.8Q74.79-0.4 74.59-0.25 74.39-0.1 73.54-0.05 72.69 0 70.59 0L70.59 0 70.59-17.6Q70.59-19.95 70.04-20.95 69.49-21.95 67.64-21.95L67.64-21.95Q66.79-21.95 65.74-21.75 64.69-21.55 63.89-21.05L63.89-21.05 63.89-0.8Q63.89-0.4 63.72-0.25 63.54-0.1 62.69-0.05 61.84 0 59.84 0ZM80.19 5.15L80.19 5.15Q79.64 5.15 79.21 4.9 78.79 4.65 78.59 4L78.59 4Q79.44 2.55 79.69 1.68 79.94 0.8 80.04-0.3L80.04-0.3Q79.39-0.65 79.11-1.28 78.84-1.9 78.84-2.75L78.84-2.75Q78.84-3.85 79.54-4.6 80.24-5.35 81.39-5.35L81.39-5.35Q82.69-5.35 83.39-4.63 84.09-3.9 84.09-2.35L84.09-2.35Q84.09-1 83.64 0.35 83.19 1.7 82.51 2.78 81.84 3.85 81.19 4.5 80.54 5.15 80.19 5.15ZM103.53 0.5L103.53 0.5Q102.08 0.5 100.83 0.15 99.58-0.2 98.56-1.15 97.53-2.1 96.78-3.93 96.03-5.75 95.63-8.72 95.23-11.7 95.23-16.05L95.23-16.05Q95.23-21.2 95.81-24.68 96.38-28.15 97.38-30.28 98.38-32.4 99.66-33.55 100.93-34.7 102.33-35.1 103.73-35.5 105.08-35.5L105.08-35.5Q106.93-35.5 107.96-35.08 108.98-34.65 109.38-34.02 109.78-33.4 109.78-32.75L109.78-32.75Q109.78-32.05 109.58-31.4 109.38-30.75 109.13-30.3L109.13-30.3Q108.88-30.5 108.41-30.78 107.93-31.05 107.28-31.28 106.63-31.5 105.88-31.5L105.88-31.5Q104.93-31.5 104.01-31.18 103.08-30.85 102.26-29.93 101.43-29 100.83-27.3 100.23-25.6 99.86-22.9 99.48-20.2 99.48-16.25L99.48-16.25Q99.48-12.45 99.86-10.05 100.23-7.65 100.88-6.33 101.53-5 102.46-4.5 103.38-4 104.48-4L104.48-4Q105.93-4 107.18-4.5 108.43-5 109.08-5.55L109.08-5.55Q109.33-5.05 109.53-4.4 109.73-3.75 109.73-3.1L109.73-3.1Q109.73-2.15 108.96-1.33 108.18-0.5 106.78 0 105.38 0.5 103.53 0.5ZM119.28 0.5L119.28 0.5Q117.38 0.5 115.91 0.03 114.43-0.45 113.43-1.8 112.43-3.15 111.93-5.73 111.43-8.3 111.43-12.5L111.43-12.5Q111.43-19.35 113.63-22.43 115.83-25.5 119.73-25.5L119.73-25.5Q122.38-25.5 124.11-24.4 125.83-23.3 126.68-20.5 127.53-17.7 127.53-12.65L127.53-12.65Q127.53-5.65 125.43-2.58 123.33 0.5 119.28 0.5ZM119.38-2.95L119.38-2.95Q120.48-2.95 121.31-3.73 122.13-4.5 122.63-6.6 123.13-8.7 123.13-12.6L123.13-12.6Q123.13-16.6 122.73-18.63 122.33-20.65 121.58-21.35 120.83-22.05 119.58-22.05L119.58-22.05Q118.48-22.05 117.63-21.28 116.78-20.5 116.31-18.4 115.83-16.3 115.83-12.4L115.83-12.4Q115.83-9.35 116.08-7.45 116.33-5.55 116.76-4.58 117.18-3.6 117.88-3.28 118.58-2.95 119.38-2.95ZM131.18 0L131.18 0 131.18-23.85Q132.83-24.6 134.75-25.05 136.68-25.5 138.73-25.5L138.73-25.5Q141.68-25.5 143.03-24.2 144.38-22.9 144.75-20.5 145.13-18.1 145.13-14.75L145.13-14.75 145.13-0.8Q145.13-0.4 144.93-0.25 144.73-0.1 143.88-0.05 143.03 0 141.08 0L141.08 0 141.08-18.6Q141.08-19.85 140.95-20.58 140.83-21.3 140.3-21.63 139.78-21.95 138.63-21.95L138.63-21.95Q137.78-21.95 136.95-21.75 136.13-21.55 135.23-21.1L135.23-21.1 135.23-0.8Q135.23-0.4 135.03-0.25 134.83-0.1 134-0.05 133.18 0 131.18 0ZM141.08 0L141.08 0 141.08-21.8Q141.53-22.9 142.85-23.73 144.18-24.55 145.95-25.03 147.73-25.5 149.38-25.5L149.38-25.5Q151.88-25.5 153.08-24.68 154.28-23.85 154.63-22.28 154.98-20.7 154.98-18.45L154.98-18.45 154.98-0.8Q154.98-0.4 154.78-0.25 154.58-0.1 153.73-0.05 152.88 0 150.93 0L150.93 0 150.93-18.5Q150.93-20.3 150.45-21.1 149.98-21.9 148.48-21.9L148.48-21.9Q147.68-21.9 146.83-21.7 145.98-21.5 145.13-20.95L145.13-20.95 145.13-0.8Q145.13-0.4 144.98-0.25 144.83-0.1 143.98-0.05 143.13 0 141.08 0ZM161.93 9.85L161.93 9.85Q160.88 9.85 160.43 9.47 159.98 9.1 159.98 8.1L159.98 8.1 159.98-23.5Q161.48-24.45 163.38-24.98 165.28-25.5 167.28-25.5L167.28-25.5Q169.78-25.5 171.6-24.63 173.43-23.75 174.43-21.48 175.43-19.2 175.43-15.1L175.43-15.1Q175.43-11.1 174.98-8.33 174.53-5.55 173.78-3.8 173.03-2.05 172.05-1.13 171.08-0.2 170.05 0.15 169.03 0.5 167.98 0.5L167.98 0.5Q166.63 0.5 165.6 0.1 164.58-0.3 164.03-0.9L164.03-0.9 164.03 9.5Q163.53 9.65 162.98 9.75 162.43 9.85 161.93 9.85ZM166.73-3.15L166.73-3.15Q167.33-3.15 168.03-3.5 168.73-3.85 169.4-5 170.08-6.15 170.5-8.45 170.93-10.75 170.93-14.65L170.93-14.65Q170.93-17.65 170.5-19.23 170.08-20.8 169.23-21.38 168.38-21.95 167.08-21.95L167.08-21.95Q165.38-21.95 164.03-21L164.03-21 164.03-4.8Q164.58-3.9 165.28-3.53 165.98-3.15 166.73-3.15ZM186.42 0.5L186.42 0.5Q184.72 0.5 183.25 0.03 181.77-0.45 180.7-1.7 179.62-2.95 179.05-5.25 178.47-7.55 178.47-11.2L178.47-11.2Q178.47-15.9 179.22-18.75 179.97-21.6 181.22-23.05 182.47-24.5 184.07-25 185.67-25.5 187.32-25.5L187.32-25.5Q190.47-25.5 192.07-23.5 193.67-21.5 193.67-17.45L193.67-17.45Q193.67-15.8 193.55-14.05 193.42-12.3 193.07-10.95L193.07-10.95Q191.37-10.6 189.27-10.45 187.17-10.3 185.27-10.23 183.37-10.15 182.15-10.15 180.92-10.15 180.92-10.15L180.92-10.15 180.97-13.45Q180.97-13.45 181.92-13.43 182.87-13.4 184.25-13.43 185.62-13.45 187.05-13.58 188.47-13.7 189.47-14L189.47-14Q189.62-14.7 189.67-15.5 189.72-16.3 189.72-17L189.72-17Q189.67-19.7 189.1-20.83 188.52-21.95 186.87-21.95L186.87-21.95Q186.02-21.95 185.25-21.48 184.47-21 183.87-19.83 183.27-18.65 182.95-16.6 182.62-14.55 182.62-11.35L182.62-11.35Q182.62-9 182.9-7.45 183.17-5.9 183.75-5.05 184.32-4.2 185.2-3.83 186.07-3.45 187.32-3.45L187.32-3.45Q188.82-3.45 190.3-3.85 191.77-4.25 192.97-5L192.97-5Q193.22-4.4 193.3-3.63 193.37-2.85 193.37-2.25L193.37-2.25Q193.37-1.5 192.42-0.85 191.47-0.2 189.9 0.15 188.32 0.5 186.42 0.5ZM204.07 0.5L204.07 0.5Q201.97 0.5 200.95-0.43 199.92-1.35 199.62-3.03 199.32-4.7 199.32-6.95L199.32-6.95 199.32-21.5 195.92-21.5Q195.92-23.1 195.95-23.83 195.97-24.55 196.17-24.78 196.37-25 196.77-25L196.77-25 199.32-25 199.32-32.6Q199.32-33.35 199.65-33.63 199.97-33.9 200.85-33.95 201.72-34 203.37-34L203.37-34 203.37-25 208.47-25Q208.47-23.45 208.45-22.7 208.42-21.95 208.25-21.73 208.07-21.5 207.67-21.5L207.67-21.5 203.37-21.5 203.37-6.95Q203.37-5.9 203.45-4.98 203.52-4.05 203.9-3.53 204.27-3 205.17-3L205.17-3Q206.02-3 206.67-3.18 207.32-3.35 208.07-3.75L208.07-3.75Q208.17-3.35 208.27-2.85 208.37-2.35 208.37-1.7L208.37-1.7Q208.37-0.8 207.7-0.33 207.02 0.15 206.05 0.33 205.07 0.5 204.07 0.5ZM218.17 0.5L218.17 0.5Q216.47 0.5 214.99 0.03 213.52-0.45 212.44-1.7 211.37-2.95 210.79-5.25 210.22-7.55 210.22-11.2L210.22-11.2Q210.22-15.9 210.97-18.75 211.72-21.6 212.97-23.05 214.22-24.5 215.82-25 217.42-25.5 219.07-25.5L219.07-25.5Q222.22-25.5 223.82-23.5 225.42-21.5 225.42-17.45L225.42-17.45Q225.42-15.8 225.29-14.05 225.17-12.3 224.82-10.95L224.82-10.95Q223.12-10.6 221.02-10.45 218.92-10.3 217.02-10.23 215.12-10.15 213.89-10.15 212.67-10.15 212.67-10.15L212.67-10.15 212.72-13.45Q212.72-13.45 213.67-13.43 214.62-13.4 215.99-13.43 217.37-13.45 218.79-13.58 220.22-13.7 221.22-14L221.22-14Q221.37-14.7 221.42-15.5 221.47-16.3 221.47-17L221.47-17Q221.42-19.7 220.84-20.83 220.27-21.95 218.62-21.95L218.62-21.95Q217.77-21.95 216.99-21.48 216.22-21 215.62-19.83 215.02-18.65 214.69-16.6 214.37-14.55 214.37-11.35L214.37-11.35Q214.37-9 214.64-7.45 214.92-5.9 215.49-5.05 216.07-4.2 216.94-3.83 217.82-3.45 219.07-3.45L219.07-3.45Q220.57-3.45 222.04-3.85 223.52-4.25 224.72-5L224.72-5Q224.97-4.4 225.04-3.63 225.12-2.85 225.12-2.25L225.12-2.25Q225.12-1.5 224.17-0.85 223.22-0.2 221.64 0.15 220.07 0.5 218.17 0.5ZM230.22 5.15L230.22 5.15Q229.67 5.15 229.24 4.9 228.82 4.65 228.62 4L228.62 4Q229.47 2.55 229.72 1.68 229.97 0.8 230.07-0.3L230.07-0.3Q229.42-0.65 229.14-1.28 228.87-1.9 228.87-2.75L228.87-2.75Q228.87-3.85 229.57-4.6 230.27-5.35 231.42-5.35L231.42-5.35Q232.72-5.35 233.42-4.63 234.12-3.9 234.12-2.35L234.12-2.35Q234.12-1 233.67 0.35 233.22 1.7 232.54 2.78 231.87 3.85 231.22 4.5 230.57 5.15 230.22 5.15ZM250.96 0L250.96 0 250.96-34.4Q250.96-34.4 251.06-34.48 251.16-34.55 251.76-34.55L251.76-34.55 254.16-34.55Q254.81-34.55 254.91-34.48 255.01-34.4 255.01-34.4L255.01-34.4 255.01-0.8Q255.01-0.4 254.84-0.25 254.66-0.1 253.81-0.05 252.96 0 250.96 0ZM261.16-31.2L244.16-31.2 244.16-34.2Q244.16-35 245.01-35L245.01-35 262.01-35 262.01-32Q262.01-31.55 261.81-31.38 261.61-31.2 261.16-31.2L261.16-31.2ZM263.36 0L263.36 0 263.36-23.25Q264.81-24.3 266.56-24.9 268.31-25.5 270.16-25.5L270.16-25.5Q272.11-25.5 272.88-24.98 273.66-24.45 273.66-23.4L273.66-23.4Q273.66-23 273.56-22.33 273.46-21.65 273.21-21L273.21-21Q272.66-21.3 272.06-21.45 271.46-21.6 270.81-21.6L270.81-21.6Q269.96-21.6 269.08-21.33 268.21-21.05 267.51-20.5L267.51-20.5 267.46-0.8Q267.46-0.4 267.28-0.25 267.11-0.1 266.26-0.05 265.41 0 263.36 0ZM276.56 0L276.56 0 276.56-23.15Q276.56-24.1 276.9-24.48 277.25-24.85 278.15-24.93 279.06-25 280.7-25L280.7-25 280.7-0.8Q280.7-0.4 280.53-0.25 280.36-0.1 279.5-0.05 278.65 0 276.56 0ZM278.5-28.45L278.5-28.45Q277.56-28.5 277-29.18 276.45-29.85 276.45-31.6L276.45-31.6Q276.5-32.95 277.06-33.77 277.61-34.6 278.81-34.6L278.81-34.6Q279.95-34.6 280.4-33.95 280.86-33.3 280.81-31.7L280.81-31.7Q280.81-30.2 280.23-29.33 279.65-28.45 278.5-28.45ZM292.7 0.5L292.7 0.5Q289.7 0.5 288.1-0.4 286.5-1.3 285.88-3.15 285.25-5 285.25-7.8L285.25-7.8 285.25-24.2Q285.25-24.6 285.4-24.75 285.55-24.9 286.43-24.95 287.3-25 289.4-25L289.4-25 289.4-7.45Q289.4-5.85 289.68-4.88 289.95-3.9 290.68-3.48 291.4-3.05 292.75-3.05L292.75-3.05Q293.45-3.05 294.4-3.25 295.35-3.45 296.15-3.95L296.15-3.95 296.15-24.2Q296.15-24.6 296.33-24.75 296.5-24.9 297.33-24.95 298.15-25 300.2-25L300.2-25 300.2-1.3Q298.75-0.5 296.75 0 294.75 0.5 292.7 0.5ZM304.75 0L304.75 0 304.75-23.85Q306.4-24.6 308.32-25.05 310.25-25.5 312.3-25.5L312.3-25.5Q315.25-25.5 316.6-24.2 317.95-22.9 318.32-20.5 318.7-18.1 318.7-14.75L318.7-14.75 318.7-0.8Q318.7-0.4 318.5-0.25 318.3-0.1 317.45-0.05 316.6 0 314.65 0L314.65 0 314.65-18.6Q314.65-19.85 314.52-20.58 314.4-21.3 313.88-21.63 313.35-21.95 312.2-21.95L312.2-21.95Q311.35-21.95 310.52-21.75 309.7-21.55 308.8-21.1L308.8-21.1 308.8-0.8Q308.8-0.4 308.6-0.25 308.4-0.1 307.57-0.05 306.75 0 304.75 0ZM314.65 0L314.65 0 314.65-21.8Q315.1-22.9 316.43-23.73 317.75-24.55 319.52-25.03 321.3-25.5 322.95-25.5L322.95-25.5Q325.45-25.5 326.65-24.68 327.85-23.85 328.2-22.28 328.55-20.7 328.55-18.45L328.55-18.45 328.55-0.8Q328.55-0.4 328.35-0.25 328.15-0.1 327.3-0.05 326.45 0 324.5 0L324.5 0 324.5-18.5Q324.5-20.3 324.02-21.1 323.55-21.9 322.05-21.9L322.05-21.9Q321.25-21.9 320.4-21.7 319.55-21.5 318.7-20.95L318.7-20.95 318.7-0.8Q318.7-0.4 318.55-0.25 318.4-0.1 317.55-0.05 316.7 0 314.65 0ZM335.5 9.85L335.5 9.85Q334.45 9.85 334 9.47 333.55 9.1 333.55 8.1L333.55 8.1 333.55-23.5Q335.05-24.45 336.95-24.98 338.85-25.5 340.85-25.5L340.85-25.5Q343.35-25.5 345.17-24.63 347-23.75 348-21.48 349-19.2 349-15.1L349-15.1Q349-11.1 348.55-8.33 348.1-5.55 347.35-3.8 346.6-2.05 345.62-1.13 344.65-0.2 343.62 0.15 342.6 0.5 341.55 0.5L341.55 0.5Q340.2 0.5 339.17 0.1 338.15-0.3 337.6-0.9L337.6-0.9 337.6 9.5Q337.1 9.65 336.55 9.75 336 9.85 335.5 9.85ZM340.3-3.15L340.3-3.15Q340.9-3.15 341.6-3.5 342.3-3.85 342.97-5 343.65-6.15 344.07-8.45 344.5-10.75 344.5-14.65L344.5-14.65Q344.5-17.65 344.07-19.23 343.65-20.8 342.8-21.38 341.95-21.95 340.65-21.95L340.65-21.95Q338.95-21.95 337.6-21L337.6-21 337.6-4.8Q338.15-3.9 338.85-3.53 339.55-3.15 340.3-3.15ZM352.59 0L352.59 0 352.59-34.9Q352.59-35.85 352.92-36.23 353.24-36.6 354.12-36.68 354.99-36.75 356.64-36.75L356.64-36.75 356.64-23.55Q357.79-24.55 359.32-25.03 360.84-25.5 362.24-25.5L362.24-25.5Q364.39-25.5 365.52-24.73 366.64-23.95 367.04-22.5 367.44-21.05 367.44-18.9L367.44-18.9 367.44-0.8Q367.44-0.4 367.22-0.25 366.99-0.1 366.12-0.05 365.24 0 363.29 0L363.29 0 363.29-17.8Q363.29-19.45 362.77-20.6 362.24-21.75 360.39-21.75L360.39-21.75Q359.54-21.75 358.54-21.45 357.54-21.15 356.64-20.35L356.64-20.35 356.64-0.8Q356.64-0.4 356.47-0.25 356.29-0.1 355.44-0.05 354.59 0 352.59 0ZM373.99-16.45L373.99-16.45Q372.44-16.45 371.82-17.2 371.19-17.95 371.19-19.3L371.19-19.3Q371.19-20.45 371.92-21.33 372.64-22.2 373.99-22.2L373.99-22.2Q375.54-22.2 376.17-21.38 376.79-20.55 376.79-19.3L376.79-19.3Q376.79-18.1 376.04-17.28 375.29-16.45 373.99-16.45ZM373.99 0.3L373.99 0.3Q372.44 0.3 371.82-0.45 371.19-1.2 371.19-2.55L371.19-2.55Q371.19-3.7 371.92-4.58 372.64-5.45 373.99-5.45L373.99-5.45Q375.54-5.45 376.17-4.65 376.79-3.85 376.79-2.55L376.79-2.55Q376.79-1.4 376.04-0.55 375.29 0.3 373.99 0.3ZM404.39-35L396.74-11.7 394.44-11.75 386.69-34.35Q386.59-34.7 386.76-34.83 386.94-34.95 387.94-34.98 388.94-35 391.29-35L391.29-35 393.29-28.15Q393.64-26.95 394.06-25.38 394.49-23.8 394.86-22.25 395.24-20.7 395.46-19.48 395.69-18.25 395.74-17.7L395.74-17.7Q395.79-18.25 396.04-19.48 396.29-20.7 396.66-22.25 397.04-23.8 397.46-25.38 397.89-26.95 398.24-28.15L398.24-28.15 399.99-34.25Q400.09-34.65 400.31-34.8 400.54-34.95 401.44-34.98 402.34-35 404.39-35L404.39-35ZM393.59 0L393.59 0 393.59-17.1 397.64-17.1 397.64-0.8Q397.64-0.4 397.46-0.25 397.29-0.1 396.46-0.05 395.64 0 393.59 0ZM410.63 0.5L410.63 0.5Q408.73 0.5 407.26 0.03 405.78-0.45 404.78-1.8 403.78-3.15 403.28-5.73 402.78-8.3 402.78-12.5L402.78-12.5Q402.78-19.35 404.98-22.43 407.18-25.5 411.08-25.5L411.08-25.5Q413.73-25.5 415.46-24.4 417.18-23.3 418.03-20.5 418.88-17.7 418.88-12.65L418.88-12.65Q418.88-5.65 416.78-2.58 414.68 0.5 410.63 0.5ZM410.73-2.95L410.73-2.95Q411.83-2.95 412.66-3.73 413.48-4.5 413.98-6.6 414.48-8.7 414.48-12.6L414.48-12.6Q414.48-16.6 414.08-18.63 413.68-20.65 412.93-21.35 412.18-22.05 410.93-22.05L410.93-22.05Q409.83-22.05 408.98-21.28 408.13-20.5 407.66-18.4 407.18-16.3 407.18-12.4L407.18-12.4Q407.18-9.35 407.43-7.45 407.68-5.55 408.11-4.58 408.53-3.6 409.23-3.28 409.93-2.95 410.73-2.95ZM429.93 0.5L429.93 0.5Q426.93 0.5 425.33-0.4 423.73-1.3 423.11-3.15 422.48-5 422.48-7.8L422.48-7.8 422.48-24.2Q422.48-24.6 422.63-24.75 422.78-24.9 423.66-24.95 424.53-25 426.63-25L426.63-25 426.63-7.45Q426.63-5.85 426.91-4.88 427.18-3.9 427.91-3.48 428.63-3.05 429.98-3.05L429.98-3.05Q430.68-3.05 431.63-3.25 432.58-3.45 433.38-3.95L433.38-3.95 433.38-24.2Q433.38-24.6 433.56-24.75 433.73-24.9 434.56-24.95 435.38-25 437.43-25L437.43-25 437.43-1.3Q435.98-0.5 433.98 0 431.98 0.5 429.93 0.5ZM441.93 0L441.93 0 441.93-23.25Q443.38-24.3 445.13-24.9 446.88-25.5 448.73-25.5L448.73-25.5Q450.68-25.5 451.45-24.98 452.23-24.45 452.23-23.4L452.23-23.4Q452.23-23 452.13-22.33 452.03-21.65 451.78-21L451.78-21Q451.23-21.3 450.63-21.45 450.03-21.6 449.38-21.6L449.38-21.6Q448.53-21.6 447.65-21.33 446.78-21.05 446.08-20.5L446.08-20.5 446.03-0.8Q446.03-0.4 445.85-0.25 445.68-0.1 444.83-0.05 443.98 0 441.93 0ZM471.62 0.5L471.62 0.5Q469.12 0.5 467.32-0.25 465.52-1 464.4-2.85 463.27-4.7 462.75-8.08 462.22-11.45 462.22-16.7L462.22-16.7Q462.22-22.6 462.97-26.28 463.72-29.95 465.12-31.98 466.52-34 468.5-34.75 470.47-35.5 472.97-35.5L472.97-35.5Q475.42-35.5 476.85-34.73 478.27-33.95 478.27-32.95L478.27-32.95Q478.27-32.25 478.12-31.58 477.97-30.9 477.77-30.3L477.77-30.3Q477.12-30.85 476.07-31.18 475.02-31.5 473.77-31.5L473.77-31.5Q471.87-31.5 470.5-30.8 469.12-30.1 468.25-28.45 467.37-26.8 466.97-24 466.57-21.2 466.57-17L466.57-17Q466.57-12.55 466.9-9.85 467.22-7.15 467.9-5.78 468.57-4.4 469.55-3.95 470.52-3.5 471.72-3.5L471.72-3.5Q472.62-3.5 473.22-3.7 473.82-3.9 474.2-4.2 474.57-4.5 474.67-4.7L474.67-4.7 474.67-17.15 470.97-17.15 470.97-19.7Q470.97-20.55 471.92-20.55L471.92-20.55 478.47-20.55 478.47-1.75Q477.87-1.25 476.95-0.73 476.02-0.2 474.7 0.15 473.37 0.5 471.62 0.5ZM489.17 0.5L489.17 0.5Q487.27 0.5 485.8 0.03 484.32-0.45 483.32-1.8 482.32-3.15 481.82-5.73 481.32-8.3 481.32-12.5L481.32-12.5Q481.32-19.35 483.52-22.43 485.72-25.5 489.62-25.5L489.62-25.5Q492.27-25.5 494-24.4 495.72-23.3 496.57-20.5 497.42-17.7 497.42-12.65L497.42-12.65Q497.42-5.65 495.32-2.58 493.22 0.5 489.17 0.5ZM489.27-2.95L489.27-2.95Q490.37-2.95 491.2-3.73 492.02-4.5 492.52-6.6 493.02-8.7 493.02-12.6L493.02-12.6Q493.02-16.6 492.62-18.63 492.22-20.65 491.47-21.35 490.72-22.05 489.47-22.05L489.47-22.05Q488.37-22.05 487.52-21.28 486.67-20.5 486.2-18.4 485.72-16.3 485.72-12.4L485.72-12.4Q485.72-9.35 485.97-7.45 486.22-5.55 486.65-4.58 487.07-3.6 487.77-3.28 488.47-2.95 489.27-2.95ZM507.37 0.5L507.37 0.5Q505.97 0.5 504.69 0.28 503.42 0.05 502.42-0.73 501.42-1.5 500.82-3 500.22-4.5 500.22-7.1L500.22-7.1Q500.22-9.7 500.77-11.33 501.32-12.95 502.27-13.83 503.22-14.7 504.42-15 505.62-15.3 506.87-15.3L506.87-15.3Q507.67-15.3 508.74-15.15 509.82-15 510.57-14.65L510.57-14.65Q510.57-14.65 510.57-15.35 510.57-16.05 510.57-16.98 510.57-17.9 510.57-18.6L510.57-18.6Q510.57-19.8 510.19-20.43 509.82-21.05 509.14-21.33 508.47-21.6 507.47-21.6L507.47-21.6Q505.52-21.6 503.72-21.25 501.92-20.9 500.82-20.45L500.82-20.45Q500.47-21.05 500.37-21.68 500.27-22.3 500.27-22.8L500.27-22.8Q500.27-23.15 500.39-23.55 500.52-23.95 500.82-24.15L500.82-24.15Q501.47-24.55 503.52-25.03 505.57-25.5 508.42-25.5L508.42-25.5Q511.67-25.5 513.14-24.15 514.62-22.8 514.62-19.4L514.62-19.4 514.62-16.75Q514.62-13.9 514.59-11.03 514.57-8.15 514.52-5.63 514.47-3.1 514.32-1.2L514.32-1.2Q513.32-0.6 511.57-0.05 509.82 0.5 507.37 0.5ZM507.77-2.9L507.77-2.9Q508.57-2.9 509.32-3.15 510.07-3.4 510.37-3.75L510.37-3.75Q510.47-4.55 510.49-5.95 510.52-7.35 510.54-8.9 510.57-10.45 510.57-11.8L510.57-11.8Q510.07-12.05 509.39-12.15 508.72-12.25 508.22-12.25L508.22-12.25Q507.42-12.25 506.74-12.08 506.07-11.9 505.57-11.38 505.07-10.85 504.77-9.85 504.47-8.85 504.47-7.2L504.47-7.2Q504.47-5.85 504.69-5 504.92-4.15 505.37-3.68 505.82-3.2 506.42-3.05 507.02-2.9 507.77-2.9ZM518.77 0L518.77 0 518.77-34.9Q518.77-35.85 519.09-36.23 519.42-36.6 520.32-36.68 521.22-36.75 522.82-36.75L522.82-36.75 522.82-0.8Q522.82-0.4 522.64-0.25 522.47-0.1 521.64-0.05 520.82 0 518.77 0ZM532.71 0.5L532.71 0.5Q530.06 0.5 528.34-0.13 526.61-0.75 526.61-2.05L526.61-2.05Q526.61-2.5 526.76-3.13 526.91-3.75 527.31-4.4L527.31-4.4Q528.41-3.75 529.64-3.45 530.86-3.15 532.31-3.15L532.31-3.15Q534.21-3.15 535.29-3.93 536.36-4.7 536.36-6.25L536.36-6.25Q536.36-7.25 535.94-8.2 535.51-9.15 534.36-10.15L534.36-10.15 529.51-14.3Q527.81-15.7 527.24-17.03 526.66-18.35 526.66-19.6L526.66-19.6Q526.66-21.35 527.54-22.68 528.41-24 530.24-24.75 532.06-25.5 534.81-25.5L534.81-25.5Q537.41-25.5 538.74-25 540.06-24.5 540.59-23.88 541.11-23.25 541.11-22.7L541.11-22.7Q541.11-21.65 540.21-20.65L540.21-20.65Q539.11-21.35 537.91-21.65 536.71-21.95 535.31-21.95L535.31-21.95Q533.51-21.95 532.44-21.33 531.36-20.7 531.36-19.55L531.36-19.55Q531.36-18.9 531.74-18.2 532.11-17.5 533.36-16.45L533.36-16.45 538.01-12.7Q539.66-11.15 540.31-9.75 540.96-8.35 540.96-6.45L540.96-6.45Q540.96-3.15 538.76-1.33 536.56 0.5 532.71 0.5ZM545.86 5.15L545.86 5.15Q545.31 5.15 544.89 4.9 544.46 4.65 544.26 4L544.26 4Q545.11 2.55 545.36 1.68 545.61 0.8 545.71-0.3L545.71-0.3Q545.06-0.65 544.79-1.28 544.51-1.9 544.51-2.75L544.51-2.75Q544.51-3.85 545.21-4.6 545.91-5.35 547.06-5.35L547.06-5.35Q548.36-5.35 549.06-4.63 549.76-3.9 549.76-2.35L549.76-2.35Q549.76-1 549.31 0.35 548.86 1.7 548.19 2.78 547.51 3.85 546.86 4.5 546.21 5.15 545.86 5.15ZM569.96 0.5L569.96 0.5Q567.51 0.5 565.78-0.33 564.06-1.15 562.98-3.2 561.91-5.25 561.41-8.78 560.91-12.3 560.91-17.7L560.91-17.7Q560.91-24.35 561.96-28.25 563.01-32.15 565.13-33.83 567.26-35.5 570.51-35.5L570.51-35.5Q572.91-35.5 574.61-34.63 576.31-33.75 577.36-31.73 578.41-29.7 578.88-26.33 579.36-22.95 579.36-17.85L579.36-17.85Q579.36-10.95 578.38-6.95 577.41-2.95 575.33-1.23 573.26 0.5 569.96 0.5ZM570.11-3.7L570.11-3.7Q571.96-3.7 572.98-5.08 574.01-6.45 574.48-9.58 574.96-12.7 574.96-17.75L574.96-17.75Q574.96-22.75 574.56-25.73 574.16-28.7 573.18-30 572.21-31.3 570.41-31.3L570.41-31.3Q568.66-31.3 567.56-29.9 566.46-28.5 565.96-25.3 565.46-22.1 565.46-16.7L565.46-16.7Q565.46-12.05 565.88-9.2 566.31-6.35 567.33-5.03 568.36-3.7 570.11-3.7ZM590.55 0.5L590.55 0.5Q587.55 0.5 585.95-0.4 584.35-1.3 583.73-3.15 583.1-5 583.1-7.8L583.1-7.8 583.1-24.2Q583.1-24.6 583.25-24.75 583.4-24.9 584.28-24.95 585.15-25 587.25-25L587.25-25 587.25-7.45Q587.25-5.85 587.53-4.88 587.8-3.9 588.53-3.48 589.25-3.05 590.6-3.05L590.6-3.05Q591.3-3.05 592.25-3.25 593.2-3.45 594-3.95L594-3.95 594-24.2Q594-24.6 594.18-24.75 594.35-24.9 595.18-24.95 596-25 598.05-25L598.05-25 598.05-1.3Q596.6-0.5 594.6 0 592.6 0.5 590.55 0.5ZM602.55 0L602.55 0 602.55-23.25Q604-24.3 605.75-24.9 607.5-25.5 609.35-25.5L609.35-25.5Q611.3-25.5 612.08-24.98 612.85-24.45 612.85-23.4L612.85-23.4Q612.85-23 612.75-22.33 612.65-21.65 612.4-21L612.4-21Q611.85-21.3 611.25-21.45 610.65-21.6 610-21.6L610-21.6Q609.15-21.6 608.28-21.33 607.4-21.05 606.7-20.5L606.7-20.5 606.65-0.8Q606.65-0.4 606.48-0.25 606.3-0.1 605.45-0.05 604.6 0 602.55 0ZM632.25 0.5L632.25 0.5Q629.75 0.5 627.95-0.25 626.15-1 625.02-2.85 623.9-4.7 623.37-8.08 622.85-11.45 622.85-16.7L622.85-16.7Q622.85-22.6 623.6-26.28 624.35-29.95 625.75-31.98 627.15-34 629.12-34.75 631.1-35.5 633.6-35.5L633.6-35.5Q636.05-35.5 637.47-34.73 638.9-33.95 638.9-32.95L638.9-32.95Q638.9-32.25 638.75-31.58 638.6-30.9 638.4-30.3L638.4-30.3Q637.75-30.85 636.7-31.18 635.65-31.5 634.4-31.5L634.4-31.5Q632.5-31.5 631.12-30.8 629.75-30.1 628.87-28.45 628-26.8 627.6-24 627.2-21.2 627.2-17L627.2-17Q627.2-12.55 627.52-9.85 627.85-7.15 628.52-5.78 629.2-4.4 630.17-3.95 631.15-3.5 632.35-3.5L632.35-3.5Q633.25-3.5 633.85-3.7 634.45-3.9 634.82-4.2 635.2-4.5 635.3-4.7L635.3-4.7 635.3-17.15 631.6-17.15 631.6-19.7Q631.6-20.55 632.55-20.55L632.55-20.55 639.1-20.55 639.1-1.75Q638.5-1.25 637.57-0.73 636.65-0.2 635.32 0.15 634 0.5 632.25 0.5ZM650.29 0.5L650.29 0.5Q647.29 0.5 645.69-0.4 644.09-1.3 643.47-3.15 642.84-5 642.84-7.8L642.84-7.8 642.84-24.2Q642.84-24.6 642.99-24.75 643.14-24.9 644.02-24.95 644.89-25 646.99-25L646.99-25 646.99-7.45Q646.99-5.85 647.27-4.88 647.54-3.9 648.27-3.48 648.99-3.05 650.34-3.05L650.34-3.05Q651.04-3.05 651.99-3.25 652.94-3.45 653.74-3.95L653.74-3.95 653.74-24.2Q653.74-24.6 653.92-24.75 654.09-24.9 654.92-24.95 655.74-25 657.79-25L657.79-25 657.79-1.3Q656.34-0.5 654.34 0 652.34 0.5 650.29 0.5ZM662.34 0L662.34 0 662.34-23.15Q662.34-24.1 662.69-24.48 663.04-24.85 663.94-24.93 664.84-25 666.49-25L666.49-25 666.49-0.8Q666.49-0.4 666.32-0.25 666.14-0.1 665.29-0.05 664.44 0 662.34 0ZM664.29-28.45L664.29-28.45Q663.34-28.5 662.79-29.18 662.24-29.85 662.24-31.6L662.24-31.6Q662.29-32.95 662.84-33.77 663.39-34.6 664.59-34.6L664.59-34.6Q665.74-34.6 666.19-33.95 666.64-33.3 666.59-31.7L666.59-31.7Q666.59-30.2 666.02-29.33 665.44-28.45 664.29-28.45ZM678.44 0.5L678.44 0.5Q676.79 0.5 675.34 0.13 673.89-0.25 672.74-1.48 671.59-2.7 670.96-5.13 670.34-7.55 670.34-11.6L670.34-11.6Q670.34-16.55 671.36-19.63 672.39-22.7 674.11-24.1 675.84-25.5 677.99-25.5L677.99-25.5Q679.14-25.5 680.04-25.25 680.94-25 681.54-24.5L681.54-24.5 681.54-34.9Q681.54-35.85 681.86-36.23 682.19-36.6 683.09-36.68 683.99-36.75 685.59-36.75L685.59-36.75 685.59-1Q684.39-0.4 682.56 0.05 680.74 0.5 678.44 0.5ZM678.59-3.15L678.59-3.15Q679.44-3.15 680.19-3.33 680.94-3.5 681.54-3.9L681.54-3.9 681.54-21.3Q681.09-21.7 680.56-21.83 680.04-21.95 679.24-21.95L679.24-21.95Q678.44-21.95 677.64-21.55 676.84-21.15 676.19-20.08 675.54-19 675.19-17.07 674.84-15.15 674.84-12.05L674.84-12.05Q674.84-9.2 675.09-7.45 675.34-5.7 675.84-4.78 676.34-3.85 677.01-3.5 677.69-3.15 678.59-3.15ZM696.44 0.5L696.44 0.5Q695.04 0.5 693.76 0.28 692.49 0.05 691.49-0.73 690.49-1.5 689.89-3 689.29-4.5 689.29-7.1L689.29-7.1Q689.29-9.7 689.84-11.33 690.39-12.95 691.34-13.83 692.29-14.7 693.49-15 694.69-15.3 695.94-15.3L695.94-15.3Q696.74-15.3 697.81-15.15 698.89-15 699.64-14.65L699.64-14.65Q699.64-14.65 699.64-15.35 699.64-16.05 699.64-16.98 699.64-17.9 699.64-18.6L699.64-18.6Q699.64-19.8 699.26-20.43 698.89-21.05 698.21-21.33 697.54-21.6 696.54-21.6L696.54-21.6Q694.59-21.6 692.79-21.25 690.99-20.9 689.89-20.45L689.89-20.45Q689.54-21.05 689.44-21.68 689.34-22.3 689.34-22.8L689.34-22.8Q689.34-23.15 689.46-23.55 689.59-23.95 689.89-24.15L689.89-24.15Q690.54-24.55 692.59-25.03 694.64-25.5 697.49-25.5L697.49-25.5Q700.74-25.5 702.21-24.15 703.69-22.8 703.69-19.4L703.69-19.4 703.69-16.75Q703.69-13.9 703.66-11.03 703.64-8.15 703.59-5.63 703.54-3.1 703.39-1.2L703.39-1.2Q702.39-0.6 700.64-0.05 698.89 0.5 696.44 0.5ZM696.84-2.9L696.84-2.9Q697.64-2.9 698.39-3.15 699.14-3.4 699.44-3.75L699.44-3.75Q699.54-4.55 699.56-5.95 699.59-7.35 699.61-8.9 699.64-10.45 699.64-11.8L699.64-11.8Q699.14-12.05 698.46-12.15 697.79-12.25 697.29-12.25L697.29-12.25Q696.49-12.25 695.81-12.08 695.14-11.9 694.64-11.38 694.14-10.85 693.84-9.85 693.54-8.85 693.54-7.2L693.54-7.2Q693.54-5.85 693.76-5 693.99-4.15 694.44-3.68 694.89-3.2 695.49-3.05 696.09-2.9 696.84-2.9ZM707.78 0L707.78 0 707.78-23.8Q708.78-24.25 710.13-24.63 711.48-25 712.93-25.25 714.38-25.5 715.73-25.5L715.73-25.5Q718.33-25.5 719.88-24.83 721.43-24.15 722.08-22.7 722.73-21.25 722.73-18.8L722.73-18.8 722.73-0.8Q722.73-0.4 722.53-0.25 722.33-0.1 721.48-0.05 720.63 0 718.53 0L718.53 0 718.53-17.6Q718.53-19.95 717.98-20.95 717.43-21.95 715.58-21.95L715.58-21.95Q714.73-21.95 713.68-21.75 712.63-21.55 711.83-21.05L711.83-21.05 711.83-0.8Q711.83-0.4 711.66-0.25 711.48-0.1 710.63-0.05 709.78 0 707.78 0ZM734.13 0.5L734.13 0.5Q732.28 0.5 730.91 0.03 729.53-0.45 728.58-1.78 727.63-3.1 727.16-5.55 726.68-8 726.68-11.95L726.68-11.95Q726.68-16.45 727.48-19.15 728.28-21.85 729.61-23.23 730.93-24.6 732.51-25.05 734.08-25.5 735.63-25.5L735.63-25.5Q737.38-25.5 738.58-24.88 739.78-24.25 739.78-23.25L739.78-23.25Q739.78-22.85 739.71-22.25 739.63-21.65 739.38-21L739.38-21Q738.78-21.35 737.83-21.63 736.88-21.9 735.83-21.9L735.83-21.9Q734.98-21.9 734.11-21.58 733.23-21.25 732.48-20.25 731.73-19.25 731.31-17.25 730.88-15.25 730.88-11.95L730.88-11.95Q730.88-9.3 731.16-7.58 731.43-5.85 731.98-4.88 732.53-3.9 733.38-3.5 734.23-3.1 735.33-3.1L735.33-3.1Q736.53-3.1 737.61-3.48 738.68-3.85 739.33-4.25L739.33-4.25Q739.53-3.6 739.61-3.08 739.68-2.55 739.68-2.05L739.68-2.05Q739.68-1 738.13-0.25 736.58 0.5 734.13 0.5ZM749.48 0.5L749.48 0.5Q747.78 0.5 746.3 0.03 744.83-0.45 743.75-1.7 742.68-2.95 742.1-5.25 741.53-7.55 741.53-11.2L741.53-11.2Q741.53-15.9 742.28-18.75 743.03-21.6 744.28-23.05 745.53-24.5 747.13-25 748.73-25.5 750.38-25.5L750.38-25.5Q753.53-25.5 755.13-23.5 756.73-21.5 756.73-17.45L756.73-17.45Q756.73-15.8 756.6-14.05 756.48-12.3 756.13-10.95L756.13-10.95Q754.43-10.6 752.33-10.45 750.23-10.3 748.33-10.23 746.43-10.15 745.2-10.15 743.98-10.15 743.98-10.15L743.98-10.15 744.03-13.45Q744.03-13.45 744.98-13.43 745.93-13.4 747.3-13.43 748.68-13.45 750.1-13.58 751.53-13.7 752.53-14L752.53-14Q752.68-14.7 752.73-15.5 752.78-16.3 752.78-17L752.78-17Q752.73-19.7 752.15-20.83 751.58-21.95 749.93-21.95L749.93-21.95Q749.08-21.95 748.3-21.48 747.53-21 746.93-19.83 746.33-18.65 746-16.6 745.68-14.55 745.68-11.35L745.68-11.35Q745.68-9 745.95-7.45 746.23-5.9 746.8-5.05 747.38-4.2 748.25-3.83 749.13-3.45 750.38-3.45L750.38-3.45Q751.88-3.45 753.35-3.85 754.83-4.25 756.03-5L756.03-5Q756.28-4.4 756.35-3.63 756.43-2.85 756.43-2.25L756.43-2.25Q756.43-1.5 755.48-0.85 754.53-0.2 752.95 0.15 751.38 0.5 749.48 0.5ZM760.98-10.7L760.98-10.7 760.28-34.15Q760.28-34.7 760.68-34.93 761.08-35.15 762.28-35.23 763.48-35.3 765.83-35.3L765.83-35.3 765.03-12.55Q764.98-11.7 764.6-11.3 764.23-10.9 763.38-10.8 762.53-10.7 760.98-10.7ZM762.88 0.35L762.88 0.35Q761.33 0.35 760.73-0.43 760.13-1.2 760.13-2.5L760.13-2.5Q760.13-3.65 760.85-4.53 761.58-5.4 762.88-5.4L762.88-5.4Q764.43-5.4 765.05-4.6 765.68-3.8 765.68-2.5L765.68-2.5Q765.68-1.35 764.95-0.5 764.23 0.35 762.88 0.35Z" opacity="1" transform="matrix(1,0,0,1,0,0)" fill="#f98e54" class="slogan-text-1" data-fill-palette-color="secondary" id="text-1"></path></svg></g></svg></g></svg></g></svg></g><g transform="matrix(1,0,0,1,75.54432,0)"><svg viewBox="0 0 244.43135999999998 231.50475362218586" height="231.50475362218586" width="244.43135999999998"><g><svg xmlns="http://www.w3.org/2000/svg" data-name="Layer 1" viewBox="3.09 2.4670874361983426 93.79113732208491 95.05303535247468" x="8" y="0" height="231.50475362218586" width="228.43135999999998" class="icon-icon-0" data-fill-palette-color="accent" id="icon-0"><circle cx="50.79" cy="25.84" r="4.0" fill="#f98e54" data-fill-palette-color="accent"></circle><path d="M3.14 41.88h0a3.63 3.63 0 0 0 3.65 3.61c3.22 0 6.43-0.09 9.65-0.13a80.11 80.11 0 0 0 0.1 29.69 3.74 3.74 0 0 0-0.69 0.57v0l-12 16a3.73 3.73 0 0 0-0.74 2.23 3.67 3.67 0 0 0 3.7 3.67c14.91 0 30-0.39 44.74-1l43-1.87c1 0 1.06-0.38 0.23-0.8 0.83 0.43 1.09 0.12 0.59-0.74l-0.14-0.23c-3.11-5.16-6.59-11.06-10.47-16.46a80.54 80.54 0 0 0 0-33l9.29-0.35c1.07 0 1.39-0.58 0.74-1.24 0.65 0.67 1.25 0.32 1.39-0.84l0-0.32c0.33-3.47 0.6-7.17 0.7-10.84a2 2 0 0 0-1-1.8L95.81 28Q74.21 15.24 52.4 2.89a3.28 3.28 0 0 0-3.13-0.05l-0.1 0.05Q27 14.55 5 26.59l0 0a3.69 3.69 0 0 0-1.91 3.23l0.06 12Zm45.3 32.64c-3.76-0.07-7.52-0.09-11.28-0.13a80.27 80.27 0 0 0-0.1-29.4c3.84-0.09 7.69-0.18 11.51-0.29A80.17 80.17 0 0 0 48.44 74.52ZM53 44.57l11.69-0.4a80.49 80.49 0 0 0-0.16 30.74c-3.8-0.09-7.6-0.22-11.39-0.3A80.5 80.5 0 0 0 53 44.57ZM32.4 74.33c-3.73 0-7.47-0.11-11.2-0.14a80.37 80.37 0 0 0-0.08-28.89c3.8-0.06 7.58-0.1 11.37-0.19A80.17 80.17 0 0 0 32.4 74.33ZM92.09 91.78a12 12 0 0 0 2.69 2.06 9.58 9.58 0 0 0-3.27-0.8h-0.28c-14.75-0.49-29.11-1.26-43.05-1.87-11.49-0.5-22.77-0.78-34.09-0.91l6.56-8.75q30.51-0.18 61-1.18c3.14 3.83 6.62 7.33 10.42 11.46ZM80.59 75.33c-3.85-0.12-7.7-0.19-11.56-0.3a80.3 80.3 0 0 0-0.16-31l11.91-0.43A80.56 80.56 0 0 0 80.59 75.33ZM50.85 9.66Q71.7 20.6 92.74 31.19c0.14 2.48 0.36 5 0.65 7.62h0a6.18 6.18 0 0 0 1.38 3 5.26 5.26 0 0 0-3.13-1.23l-0.31 0c-27.81-1-54.38-2.12-80.89-2.34l0-6.22Q30.74 21 50.85 9.66Z" fill="#f98e54" data-fill-palette-color="accent"></path></svg></g></svg></g><g></g></svg></g></svg></g><defs></defs></svg><rect width="208.16287651441434" height="247.2" fill="none" stroke="none" visibility="hidden"></rect></g></svg></g></svg>